<svg width="166" height="44" viewBox="0 0 166 44" fill="none" xmlns="http://www.w3.org/2000/svg">
<path d="M24.7614 16.3636H26.5227V24.017C26.5227 24.8314 26.3314 25.553 25.9489 26.1818C25.5663 26.8068 25.0284 27.2992 24.3352 27.6591C23.642 28.0152 22.8295 28.1932 21.8977 28.1932C20.9697 28.1932 20.1591 28.0152 19.4659 27.6591C18.7727 27.2992 18.2348 26.8068 17.8523 26.1818C17.4697 25.553 17.2784 24.8314 17.2784 24.017V16.3636H19.0341V23.875C19.0341 24.4015 19.1496 24.8693 19.3807 25.2784C19.6155 25.6875 19.947 26.0095 20.375 26.2443C20.803 26.4754 21.3106 26.5909 21.8977 26.5909C22.4886 26.5909 22.9981 26.4754 23.4261 26.2443C23.858 26.0095 24.1875 25.6875 24.4148 25.2784C24.6458 24.8693 24.7614 24.4015 24.7614 23.875V16.3636ZM28.9389 31.2727V19.2727H30.598V20.6875H30.7401C30.8385 20.5057 30.9806 20.2955 31.1662 20.0568C31.3518 19.8182 31.6094 19.6098 31.9389 19.4318C32.2685 19.25 32.7041 19.1591 33.2457 19.1591C33.9503 19.1591 34.5791 19.3371 35.1321 19.6932C35.6851 20.0492 36.1188 20.5625 36.4332 21.233C36.7514 21.9034 36.9105 22.7102 36.9105 23.6534C36.9105 24.5966 36.7533 25.4053 36.4389 26.0795C36.1245 26.75 35.6927 27.267 35.1435 27.6307C34.5942 27.9905 33.9673 28.1705 33.2628 28.1705C32.7325 28.1705 32.2988 28.0814 31.9616 27.9034C31.6283 27.7254 31.367 27.517 31.1776 27.2784C30.9882 27.0398 30.8423 26.8277 30.7401 26.642H30.6378V31.2727H28.9389ZM30.6037 23.6364C30.6037 24.25 30.6927 24.7879 30.8707 25.25C31.0488 25.7121 31.3063 26.0739 31.6435 26.3352C31.9806 26.5928 32.3935 26.7216 32.8821 26.7216C33.3897 26.7216 33.8139 26.5871 34.1548 26.3182C34.4957 26.0455 34.7533 25.6761 34.9276 25.2102C35.1056 24.7443 35.1946 24.2197 35.1946 23.6364C35.1946 23.0606 35.1075 22.5436 34.9332 22.0852C34.7628 21.6269 34.5052 21.2652 34.1605 21C33.8196 20.7348 33.3935 20.6023 32.8821 20.6023C32.3897 20.6023 31.973 20.7292 31.6321 20.983C31.295 21.2367 31.0393 21.5909 30.8651 22.0455C30.6908 22.5 30.6037 23.0303 30.6037 23.6364ZM40.5128 16.3636V28H38.8139V16.3636H40.5128ZM46.4744 28.1761C45.6563 28.1761 44.9422 27.9886 44.3324 27.6136C43.7225 27.2386 43.2491 26.714 42.9119 26.0398C42.5748 25.3655 42.4062 24.5777 42.4062 23.6761C42.4062 22.7708 42.5748 21.9792 42.9119 21.3011C43.2491 20.6231 43.7225 20.0966 44.3324 19.7216C44.9422 19.3466 45.6563 19.1591 46.4744 19.1591C47.2926 19.1591 48.0066 19.3466 48.6165 19.7216C49.2263 20.0966 49.6998 20.6231 50.0369 21.3011C50.3741 21.9792 50.5426 22.7708 50.5426 23.6761C50.5426 24.5777 50.3741 25.3655 50.0369 26.0398C49.6998 26.714 49.2263 27.2386 48.6165 27.6136C48.0066 27.9886 47.2926 28.1761 46.4744 28.1761ZM46.4801 26.75C47.0104 26.75 47.4498 26.6098 47.7983 26.3295C48.1468 26.0492 48.4044 25.6761 48.571 25.2102C48.7415 24.7443 48.8267 24.2311 48.8267 23.6705C48.8267 23.1136 48.7415 22.6023 48.571 22.1364C48.4044 21.6667 48.1468 21.2898 47.7983 21.0057C47.4498 20.7216 47.0104 20.5795 46.4801 20.5795C45.946 20.5795 45.5028 20.7216 45.1506 21.0057C44.8021 21.2898 44.5426 21.6667 44.3722 22.1364C44.2055 22.6023 44.1222 23.1136 44.1222 23.6705C44.1222 24.2311 44.2055 24.7443 44.3722 25.2102C44.5426 25.6761 44.8021 26.0492 45.1506 26.3295C45.5028 26.6098 45.946 26.75 46.4801 26.75ZM54.9787 28.1932C54.4257 28.1932 53.9257 28.0909 53.4787 27.8864C53.0317 27.678 52.6776 27.3769 52.4162 26.983C52.1586 26.589 52.0298 26.1061 52.0298 25.5341C52.0298 25.0417 52.1245 24.6364 52.3139 24.3182C52.5033 24 52.759 23.7481 53.081 23.5625C53.4029 23.3769 53.7628 23.2367 54.1605 23.142C54.5582 23.0473 54.9635 22.9754 55.3764 22.9261C55.8991 22.8655 56.3234 22.8163 56.6491 22.7784C56.9749 22.7367 57.2116 22.6705 57.3594 22.5795C57.5071 22.4886 57.581 22.3409 57.581 22.1364V22.0966C57.581 21.6004 57.4408 21.2159 57.1605 20.9432C56.884 20.6705 56.4711 20.5341 55.9219 20.5341C55.3499 20.5341 54.8991 20.661 54.5696 20.9148C54.2438 21.1648 54.0185 21.4432 53.8935 21.75L52.2969 21.3864C52.4863 20.8561 52.7628 20.428 53.1264 20.1023C53.4938 19.7727 53.9162 19.5341 54.3935 19.3864C54.8707 19.2348 55.3726 19.1591 55.8991 19.1591C56.2476 19.1591 56.617 19.2008 57.0071 19.2841C57.401 19.3636 57.7685 19.5114 58.1094 19.7273C58.4541 19.9432 58.7363 20.2519 58.956 20.6534C59.1757 21.0511 59.2855 21.5682 59.2855 22.2045V28H57.6264V26.8068H57.5582C57.4484 27.0265 57.2836 27.2424 57.0639 27.4545C56.8442 27.6667 56.562 27.8428 56.2173 27.983C55.8726 28.1231 55.4598 28.1932 54.9787 28.1932ZM55.348 26.8295C55.8177 26.8295 56.2192 26.7367 56.5526 26.5511C56.8897 26.3655 57.1454 26.1231 57.3196 25.8239C57.4976 25.5208 57.5866 25.197 57.5866 24.8523V23.7273C57.526 23.7879 57.4086 23.8447 57.2344 23.8977C57.0639 23.947 56.8688 23.9905 56.6491 24.0284C56.4295 24.0625 56.2154 24.0947 56.0071 24.125C55.7988 24.1515 55.6245 24.1742 55.4844 24.1932C55.1548 24.2348 54.8537 24.3049 54.581 24.4034C54.312 24.5019 54.0961 24.6439 53.9332 24.8295C53.7741 25.0114 53.6946 25.2538 53.6946 25.5568C53.6946 25.9773 53.8499 26.2955 54.1605 26.5114C54.4711 26.7235 54.867 26.8295 55.348 26.8295ZM64.8153 28.1705C64.1108 28.1705 63.482 27.9905 62.929 27.6307C62.3797 27.267 61.9479 26.75 61.6335 26.0795C61.3229 25.4053 61.1676 24.5966 61.1676 23.6534C61.1676 22.7102 61.3248 21.9034 61.6392 21.233C61.9574 20.5625 62.393 20.0492 62.946 19.6932C63.4991 19.3371 64.1259 19.1591 64.8267 19.1591C65.3684 19.1591 65.804 19.25 66.1335 19.4318C66.4669 19.6098 66.7244 19.8182 66.9062 20.0568C67.0919 20.2955 67.2358 20.5057 67.3381 20.6875H67.4403V16.3636H69.1392V28H67.4801V26.642H67.3381C67.2358 26.8277 67.0881 27.0398 66.8949 27.2784C66.7055 27.517 66.4441 27.7254 66.1108 27.9034C65.7775 28.0814 65.3456 28.1705 64.8153 28.1705ZM65.1903 26.7216C65.679 26.7216 66.0919 26.5928 66.429 26.3352C66.7699 26.0739 67.0275 25.7121 67.2017 25.25C67.3797 24.7879 67.4688 24.25 67.4688 23.6364C67.4688 23.0303 67.3816 22.5 67.2074 22.0455C67.0331 21.5909 66.7775 21.2367 66.4403 20.983C66.1032 20.7292 65.6866 20.6023 65.1903 20.6023C64.679 20.6023 64.2528 20.7348 63.9119 21C63.571 21.2652 63.3134 21.6269 63.1392 22.0852C62.9688 22.5436 62.8835 23.0606 62.8835 23.6364C62.8835 24.2197 62.9706 24.7443 63.1449 25.2102C63.3191 25.6761 63.5767 26.0455 63.9176 26.3182C64.2623 26.5871 64.6866 26.7216 65.1903 26.7216ZM75.7983 28V19.2727H77.4972V28H75.7983ZM76.6562 17.9261C76.3608 17.9261 76.107 17.8277 75.8949 17.6307C75.6866 17.4299 75.5824 17.1913 75.5824 16.9148C75.5824 16.6345 75.6866 16.3958 75.8949 16.1989C76.107 15.9981 76.3608 15.8977 76.6562 15.8977C76.9517 15.8977 77.2036 15.9981 77.4119 16.1989C77.6241 16.3958 77.7301 16.6345 77.7301 16.9148C77.7301 17.1913 77.6241 17.4299 77.4119 17.6307C77.2036 17.8277 76.9517 17.9261 76.6562 17.9261ZM79.7827 28V19.2727H81.4134V20.6932H81.5213C81.7031 20.2121 82.0005 19.8371 82.4134 19.5682C82.8262 19.2955 83.3205 19.1591 83.8963 19.1591C84.4796 19.1591 84.9683 19.2955 85.3622 19.5682C85.7599 19.8409 86.0535 20.2159 86.2429 20.6932H86.3338C86.5421 20.2273 86.8736 19.8561 87.3281 19.5795C87.7827 19.2992 88.3243 19.1591 88.9531 19.1591C89.7448 19.1591 90.3906 19.4072 90.8906 19.9034C91.3944 20.3996 91.6463 21.1477 91.6463 22.1477V28H89.9474V22.3068C89.9474 21.7159 89.7865 21.2879 89.4645 21.0227C89.1425 20.7576 88.758 20.625 88.3111 20.625C87.758 20.625 87.3281 20.7955 87.0213 21.1364C86.7145 21.4735 86.5611 21.9072 86.5611 22.4375V28H84.8679V22.1989C84.8679 21.7254 84.7202 21.3447 84.4247 21.0568C84.1293 20.7689 83.7448 20.625 83.2713 20.625C82.9493 20.625 82.652 20.7102 82.3793 20.8807C82.1103 21.0473 81.8925 21.2803 81.7259 21.5795C81.563 21.8788 81.4815 22.2254 81.4815 22.6193V28H79.7827ZM96.4631 28.1932C95.91 28.1932 95.41 28.0909 94.9631 27.8864C94.5161 27.678 94.1619 27.3769 93.9006 26.983C93.643 26.589 93.5142 26.1061 93.5142 25.5341C93.5142 25.0417 93.6089 24.6364 93.7983 24.3182C93.9877 24 94.2434 23.7481 94.5653 23.5625C94.8873 23.3769 95.2472 23.2367 95.6449 23.142C96.0426 23.0473 96.4479 22.9754 96.8608 22.9261C97.3835 22.8655 97.8078 22.8163 98.1335 22.7784C98.4593 22.7367 98.696 22.6705 98.8438 22.5795C98.9915 22.4886 99.0653 22.3409 99.0653 22.1364V22.0966C99.0653 21.6004 98.9252 21.2159 98.6449 20.9432C98.3684 20.6705 97.9555 20.5341 97.4062 20.5341C96.8343 20.5341 96.3835 20.661 96.054 20.9148C95.7282 21.1648 95.5028 21.4432 95.3778 21.75L93.7812 21.3864C93.9706 20.8561 94.2472 20.428 94.6108 20.1023C94.9782 19.7727 95.4006 19.5341 95.8778 19.3864C96.3551 19.2348 96.857 19.1591 97.3835 19.1591C97.732 19.1591 98.1013 19.2008 98.4915 19.2841C98.8854 19.3636 99.2528 19.5114 99.5938 19.7273C99.9384 19.9432 100.221 20.2519 100.44 20.6534C100.66 21.0511 100.77 21.5682 100.77 22.2045V28H99.1108V26.8068H99.0426C98.9328 27.0265 98.768 27.2424 98.5483 27.4545C98.3286 27.6667 98.0464 27.8428 97.7017 27.983C97.357 28.1231 96.9441 28.1932 96.4631 28.1932ZM96.8324 26.8295C97.3021 26.8295 97.7036 26.7367 98.0369 26.5511C98.3741 26.3655 98.6297 26.1231 98.804 25.8239C98.982 25.5208 99.071 25.197 99.071 24.8523V23.7273C99.0104 23.7879 98.893 23.8447 98.7188 23.8977C98.5483 23.947 98.3532 23.9905 98.1335 24.0284C97.9138 24.0625 97.6998 24.0947 97.4915 24.125C97.2831 24.1515 97.1089 24.1742 96.9688 24.1932C96.6392 24.2348 96.3381 24.3049 96.0653 24.4034C95.7964 24.5019 95.5805 24.6439 95.4176 24.8295C95.2585 25.0114 95.179 25.2538 95.179 25.5568C95.179 25.9773 95.3343 26.2955 95.6449 26.5114C95.9555 26.7235 96.3513 26.8295 96.8324 26.8295ZM106.692 31.4545C105.999 31.4545 105.402 31.3636 104.902 31.1818C104.406 31 104 30.7595 103.686 30.4602C103.372 30.161 103.137 29.8333 102.982 29.4773L104.442 28.875C104.544 29.0417 104.68 29.2178 104.851 29.4034C105.025 29.5928 105.26 29.7538 105.555 29.8864C105.855 30.0189 106.239 30.0852 106.709 30.0852C107.353 30.0852 107.885 29.928 108.305 29.6136C108.726 29.303 108.936 28.8068 108.936 28.125V26.4091H108.828C108.726 26.5947 108.578 26.8011 108.385 27.0284C108.196 27.2557 107.934 27.4527 107.601 27.6193C107.268 27.786 106.834 27.8693 106.3 27.8693C105.61 27.8693 104.989 27.7083 104.436 27.3864C103.887 27.0606 103.451 26.5814 103.129 25.9489C102.811 25.3125 102.652 24.5303 102.652 23.6023C102.652 22.6742 102.809 21.8788 103.124 21.2159C103.442 20.553 103.877 20.0455 104.43 19.6932C104.983 19.3371 105.61 19.1591 106.311 19.1591C106.853 19.1591 107.29 19.25 107.624 19.4318C107.957 19.6098 108.216 19.8182 108.402 20.0568C108.591 20.2955 108.737 20.5057 108.839 20.6875H108.964V19.2727H110.629V28.1932C110.629 28.9432 110.455 29.5587 110.107 30.0398C109.758 30.5208 109.286 30.8769 108.692 31.108C108.101 31.339 107.434 31.4545 106.692 31.4545ZM106.675 26.4602C107.163 26.4602 107.576 26.3466 107.913 26.1193C108.254 25.8883 108.512 25.5587 108.686 25.1307C108.864 24.6989 108.953 24.1818 108.953 23.5795C108.953 22.9924 108.866 22.4754 108.692 22.0284C108.518 21.5814 108.262 21.233 107.925 20.983C107.588 20.7292 107.171 20.6023 106.675 20.6023C106.163 20.6023 105.737 20.7348 105.396 21C105.055 21.2614 104.798 21.6174 104.624 22.0682C104.453 22.5189 104.368 23.0227 104.368 23.5795C104.368 24.1515 104.455 24.6534 104.629 25.0852C104.804 25.517 105.061 25.8542 105.402 26.0966C105.747 26.339 106.171 26.4602 106.675 26.4602ZM116.669 28.1761C115.809 28.1761 115.069 27.9924 114.447 27.625C113.83 27.2538 113.353 26.733 113.016 26.0625C112.682 25.3883 112.516 24.5985 112.516 23.6932C112.516 22.7992 112.682 22.0114 113.016 21.3295C113.353 20.6477 113.822 20.1155 114.425 19.733C115.031 19.3504 115.739 19.1591 116.55 19.1591C117.042 19.1591 117.519 19.2405 117.982 19.4034C118.444 19.5663 118.858 19.822 119.226 20.1705C119.593 20.5189 119.883 20.9716 120.095 21.5284C120.307 22.0814 120.413 22.7538 120.413 23.5455V24.1477H113.476V22.875H118.749C118.749 22.428 118.658 22.0322 118.476 21.6875C118.294 21.339 118.038 21.0644 117.709 20.8636C117.383 20.6629 117 20.5625 116.561 20.5625C116.084 20.5625 115.667 20.6799 115.311 20.9148C114.959 21.1458 114.686 21.4489 114.493 21.8239C114.304 22.1951 114.209 22.5985 114.209 23.0341V24.0284C114.209 24.6117 114.311 25.108 114.516 25.517C114.724 25.9261 115.014 26.2386 115.385 26.4545C115.756 26.6667 116.19 26.7727 116.686 26.7727C117.008 26.7727 117.302 26.7273 117.567 26.6364C117.832 26.5417 118.061 26.4015 118.254 26.2159C118.447 26.0303 118.595 25.8011 118.697 25.5284L120.305 25.8182C120.177 26.2917 119.946 26.7064 119.612 27.0625C119.283 27.4148 118.868 27.6894 118.368 27.8864C117.872 28.0795 117.305 28.1761 116.669 28.1761Z" fill="#8E4EC6"/>
<path d="M140 30.3333C135.398 30.3333 131.667 26.6023 131.667 22C131.667 17.3976 135.398 13.6667 140 13.6667C144.602 13.6667 148.333 17.3976 148.333 22C148.333 26.6023 144.602 30.3333 140 30.3333ZM140 28.6667C143.682 28.6667 146.667 25.6819 146.667 22C146.667 18.3181 143.682 15.3333 140 15.3333C136.318 15.3333 133.333 18.3181 133.333 22C133.333 25.6819 136.318 28.6667 140 28.6667ZM139.167 24.5H140.833V26.1667H139.167V24.5ZM140.833 23.1292V23.6667H139.167V22.4167C139.167 21.9564 139.54 21.5833 140 21.5833C140.69 21.5833 141.25 21.0237 141.25 20.3333C141.25 19.643 140.69 19.0833 140 19.0833C139.394 19.0833 138.888 19.5152 138.774 20.0881L137.139 19.7612C137.405 18.4243 138.585 17.4167 140 17.4167C141.611 17.4167 142.917 18.7225 142.917 20.3333C142.917 21.6546 142.038 22.7707 140.833 23.1292Z" fill="#8E4EC6"/>
</svg>
