<svg width="20" height="20" viewBox="0 0 32 32" fill="none" xmlns="http://www.w3.org/2000/svg">
<path d="M22 4C26.0501 4 29.3333 7.33333 29.3333 12C29.3333 21.3333 19.3333 26.6667 16 28.6667C12.6667 26.6667 2.66666 21.3333 2.66666 12C2.66666 7.33333 5.99999 4 9.99999 4C12.48 4 14.6667 5.33333 16 6.66667C17.3333 5.33333 19.52 4 22 4ZM17.2452 24.8051C18.4207 24.0647 19.48 23.3273 20.4732 22.5372C24.4449 19.3773 26.6667 15.9247 26.6667 12C26.6667 8.85435 24.6173 6.66667 22 6.66667C20.5655 6.66667 19.0124 7.42548 17.8856 8.55228L16 10.4379L14.1144 8.55228C12.9876 7.42548 11.4345 6.66667 9.99999 6.66667C7.41207 6.66667 5.33332 8.87533 5.33332 12C5.33332 15.9247 7.55502 19.3773 11.5268 22.5372C12.52 23.3273 13.5793 24.0647 14.7548 24.8051C15.1528 25.0559 15.5481 25.2972 16 25.5669C16.4519 25.2972 16.8472 25.0559 17.2452 24.8051Z" fill="#8E4EC6"/>
</svg>
